# xmcd
#
# Track frame offsets:
#	150
#	23062
#	41610
#	59042
#	82692
#	105150
#	126657
#	147215
#	162807
#	185315
#
# Disc length: 2770 seconds
#
# Revision: 0
# Processed by: cddbd v1.5.1PL2 Copyright (c) Steve Scherf et al.
# Submitted via: dBpowerAMP V4.0
#
DISCID=7b0ad00a
DTITLE=Brownstone - All For Love
DYEAR=2000
DGENRE=R&B
TTITLE0=If You Love Me
TTITLE1=I Can't Tell You Why
TTITLE2=Pass The Lovin'
TTITLE3=Fruit Of Life
TTITLE4=You Give Good Love
TTITLE5=Kiss And Tell
TTITLE6=Love Me Like You Do
TTITLE7=Wipe It Up
TTITLE8=Baby Love
TTITLE9=Half Of You
EXTD=
EXTT0=
EXTT1=
EXTT2=
EXTT3=
EXTT4=
EXTT5=
EXTT6=
EXTT7=
EXTT8=
EXTT9=
PLAYORDER=
